<svg viewBox="0 0 140 100" xmlns="http://www.w3.org/2000/svg">
  <g fill="hsl(0 0% 80%)">
    <view id="bus_11" viewBox="0 0 20 20" />
    <g transform="translate(0, 0)">
      <defs>
        <mask id="bus_11_mask">
          <rect x="0" y="0" width="20" height="20" fill="white" />
          <rect x="6" y="4" width="8" height="1" fill="black" />
          <rect x="5" y="5.5" width="10" height="7" fill="black" />
          <rect x="5" y="13.5" width="2" height="1.5" fill="black" />
          <rect x="13" y="13.5" width="2" height="1.5" fill="black" />
        </mask>
      </defs>
      <rect x="4" y="3" width="12" height="13" rx="1.5" mask="url(#bus_11_mask)" />
      <rect x="5" y="15" width="2" height="2" rx="0.5" mask="url(#bus_11_mask)" />
      <rect x="13" y="15" width="2" height="2" rx="0.5" mask="url(#bus_11_mask)" />
    </g>
    <view id="railway_11" viewBox="20 0 20 20" />
    <g transform="translate(20, 0)">
      <defs>
        <mask id="railway_11_mask">
          <rect x="0" y="0" width="20" height="20" fill="white" />
          <rect x="6" y="3" width="8" height="1.5" fill="black" />
          <rect x="5" y="5" width="10" height="5" fill="black" />
          <circle cx="6" cy="12" r="1" fill="black" />
          <circle cx="14" cy="12" r="1" fill="black" />
        </mask>
      </defs>
      <rect x="4" y="2" width="12" height="13" rx="1.5" mask="url(#railway_11_mask)" />
      <path d="M 7 15.5 l -3 3 l 1 0 l 3 -3" />
      <path d="M 12 15.5 l 3 3 l 1 0 l -3 -3" />
      <path d="M 5 16 l 10 0" stroke="hsl(0 0% 80%)" stroke-width="0.5" />
      <path d="M 3.5 17.5 l 13 0" stroke="hsl(0 0% 80%)" stroke-width="0.5" />
    </g>
    <view id="rail_metro_11" viewBox="40 0 20 20" />
    <g transform="translate(40, 0)">
      <defs>
        <mask id="rail_metro_11_mask">
          <rect x="0" y="0" width="20" height="20" fill="white" />
          <rect x="6.5" y="3.8" width="7" height="1.3" fill="black" />
          <rect x="5.5" y="5.5" width="9" height="4.5" fill="black" />
          <circle cx="6.5" cy="12" r="1" fill="black" />
          <circle cx="13.5" cy="12" r="1" fill="black" />
        </mask>
        <mask id="rail_metro_11_tunnel_mask">
          <rect x="0" y="0" width="20" height="20" fill="white" />
          <rect x="0" y="16" width="20" height="5" fill="black" />
        </mask>
      </defs>
      <rect x="5" y="3" width="10" height="12" rx="1.5" mask="url(#rail_metro_11_mask)" />
      <circle cx="10" cy="10" r="9" fill="none" stroke="hsl(0 0% 80%)" stroke-width="0.7"
        mask="url(#rail_metro_11_tunnel_mask)" />
      <path d="M 7 15.5 l -3 3 l 1 0 l 3 -3" />
      <path d="M 12 15.5 l 3 3 l 1 0 l -3 -3" />
      <path d="M 5 16 l 10 0" stroke="hsl(0 0% 80%)" stroke-width="0.5" />
      <path d="M 3.5 17.5 l 13 0" stroke="hsl(0 0% 80%)" stroke-width="0.5" />
    </g>
    <view id="rail_light_11" viewBox="60 0 20 20" />
    <g transform="translate(60, 0)">
      <defs>
        <mask id="rail_light_11_mask">
          <rect x="0" y="0" width="20" height="20" fill="white" />
          <rect x="6" y="3" width="8" height="2" fill="black" />
          <rect x="5.5" y="5.5" width="9" height="5" fill="black" />
          <circle cx="10" cy="12.5" r="0.8" fill="black" />
        </mask>
      </defs>
      <rect x="5" y="2" width="10" height="13" rx="1.5" mask="url(#rail_light_11_mask)" />
      <path d="M 7 15.5 l -3 3 l 1 0 l 3 -3" />
      <path d="M 12 15.5 l 3 3 l 1 0 l -3 -3" />
      <path d="M 5 16 l 10 0" stroke="hsl(0 0% 80%)" stroke-width="0.5" />
      <path d="M 3.5 17.5 l 13 0" stroke="hsl(0 0% 80%)" stroke-width="0.5" />
    </g>
    <view id="airport_11" viewBox="80 0 20 20" />
    <g transform="translate(80, 0)">
      <path d="M 10 2 q -1 0.5 -1 1 v 5 l -7 3 v 1 l 7 -0.5 v5 l -2 1 v 0.5 l 3 -0.3 z" />
      <path d="M 10 2 q -1 0.5 -1 1 v 5 l -7 3 v 1 l 7 -0.5 v5 l -2 1 v 0.5 l 3 -0.3 z"
        transform="translate(20) scale(-1, 1)" />
    </g>
    <view id="airfield_11" viewBox="100 0 20 20" />
    <g transform="translate(100, 0)">
      <path d="M 10 2.5 h -2 v 0.5 h 2 q -1 0 -1 1 v 4 h -6 v 1.5 l 6 2 l 0.5 5 l -2 1 v 0.5 l 3 -0.3 z" />
      <path d="M 10 2.5 h -2 v 0.5 h 2 q -1 0 -1 1 v 4 h -6 v 1.5 l 6 2 l 0.5 5 l -2 1 v 0.5 l 3 -0.3 z"
        transform="translate(20) scale(-1, 1)" />

    </g>
    <!-- <rect x="100" y="0" width="20" height="20" fill="none" stroke="red" stroke-width="0.2" /> -->
  </g>
</svg>